<svg width="512" height="512" viewBox="0 0 512 512" fill="none" xmlns="http://www.w3.org/2000/svg">
  <defs>
    <linearGradient id="g" x1="0" y1="0" x2="512" y2="512" gradientUnits="userSpaceOnUse">
      <stop stop-color="#1E9E8A"/>
      <stop offset="1" stop-color="#5FE3C9"/>
    </linearGradient>
  </defs>
  <rect width="512" height="512" rx="116" fill="url(#g)"/>
  <!-- Heart -->
  <path d="M256 392c-12-9-118-78-118-160 0-44 33-74 72-74 27 0 46 15 46 15s19-15 46-15c39 0 72 30 72 74 0 82-106 151-118 160z" fill="#ffffff" opacity="0.96"/>
  <!-- Leaf vein / sprout -->
  <path d="M256 300c0-44 18-78 54-96-8 46-26 76-54 96z" fill="#1E9E8A" opacity="0.85"/>
  <!-- Pulse line -->
  <path d="M150 268h44l16-34 26 70 20-44 14 22h48" stroke="#1E9E8A" stroke-width="14" stroke-linecap="round" stroke-linejoin="round" fill="none"/>
</svg>
